<?xml version="1.0" encoding="UTF-8" standalone="no"?>
<!-- Created with Inkscape (http://www.inkscape.org/) -->

<svg
   version="1.1"
   id="svg1"
   width="2666.6667"
   height="2666.6667"
   viewBox="0 0 2666.6667 2666.6667"
   sodipodi:docname="vecteezy_fire-skull-head-logo-template-with-horns-warrior_15484580.eps"
   xmlns:inkscape="http://www.inkscape.org/namespaces/inkscape"
   xmlns:sodipodi="http://sodipodi.sourceforge.net/DTD/sodipodi-0.dtd"
   xmlns="http://www.w3.org/2000/svg"
   xmlns:svg="http://www.w3.org/2000/svg">
  <defs
     id="defs1" />
  <sodipodi:namedview
     id="namedview1"
     pagecolor="#ffffff"
     bordercolor="#000000"
     borderopacity="0.25"
     inkscape:showpageshadow="2"
     inkscape:pageopacity="0.0"
     inkscape:pagecheckerboard="0"
     inkscape:deskcolor="#d1d1d1">
    <inkscape:page
       x="0"
       y="0"
       inkscape:label="1"
       id="page1"
       width="2666.6667"
       height="2666.6667"
       margin="0"
       bleed="0" />
  </sodipodi:namedview>
  <g
     id="g1"
     inkscape:groupmode="layer"
     inkscape:label="1">
    <g
       id="group-R5">
      <path
         id="path2"
         d="M 20000,0 H 0 V 20000 H 20000 V 0"
         style="fill:#ffffff;fill-opacity:1;fill-rule:nonzero;stroke:none"
         transform="matrix(0.13333333,0,0,-0.13333333,0,2666.6667)" />
      <path
         id="path3"
         d="m 13803.3,6328.1 c 200.5,-272.1 261.4,-977.7 -225.6,-1274.9 0,0 388.5,512.1 125.3,1092.3 -263.2,580.1 -259.1,1042.1 -259.1,1042.1 0,0 158.8,-587.3 359.4,-859.5 z m -658.5,2440.1 c 228.2,-659.7 -62.9,-1533.7 -433.6,-1293.1 -398.4,258.6 -1219.3,151.4 -1671.6,447.4 83.1,-191.6 212.8,-311.4 212.8,-311.4 -750.5,415.4 -769.9,1159 -769.9,1159.9 -17.2,262.8 124.1,523.1 380.2,639.1 599,271.3 1345.9,176.6 1818.2,-99.7 262.1,-141.3 547.3,-375.9 763,-765.5 0,0 -112.7,121.9 -299.1,223.3 z M 10656.6,5980.3 c -282,-113.3 -439.4,-82.6 -576,59.1 -44.2,45.8 -117.04,45.8 -161.24,0 -136.57,-141.7 -293.98,-172.4 -576,-59.1 -338.68,136.1 -47.16,664.5 207.37,827.3 154.01,98.5 274.54,278.3 351.81,420.1 41.98,77.1 152.96,77.1 194.96,0 77.2,-141.8 197.8,-321.6 351.8,-420.1 254.5,-162.8 546,-691.2 207.3,-827.3 z M 8747.57,7611.1 c 0,0 129.69,119.8 212.83,311.4 -452.25,-296 -1273.22,-188.8 -1671.61,-447.4 -370.68,-240.6 -661.81,633.4 -433.55,1293.1 -186.48,-101.4 -299.17,-223.3 -299.17,-223.3 215.7,389.6 500.94,624.2 763.07,765.5 472.28,276.3 1219.18,371 1818.2,99.7 256.09,-116 397.37,-376.3 380.15,-639.1 -0.02,-0.9 -19.43,-744.5 -769.92,-1159.9 z m -586.74,4556.2 c 0,0 238.99,-1224.8 -938.76,-1557.9 0,0 934.17,501.5 938.76,1557.9 z M 13812.5,7805.7 c 216.4,889.9 763.3,1757 682.5,2497.6 -13.7,125.7 -32.4,246.8 -55.6,363.6 -51.9,260.6 -336,401.7 -574.9,285.3 l -4.6,-2.3 c -116.8,-56.7 -246.8,-86.6 -376.1,-86.6 -202.7,0 -398.5,72.2 -551.2,203.5 -292.4,251.2 -640,702.8 -635.3,1427 0.7,107.8 21.7,212.2 60.2,308.8 80.9,202.6 -22.2,433.3 -224.1,515.9 -1086.4,444.8 -2133.4,446.8 -2133.4,446.8 0,0 -1046.96,-2 -2133.41,-446.8 -201.91,-82.6 -305.01,-313.3 -224.13,-515.9 38.56,-96.6 59.57,-201 60.26,-308.8 4.66,-724.2 -342.93,-1175.8 -635.34,-1427 -152.73,-131.3 -348.47,-203.5 -551.16,-203.5 -129.3,0 -259.36,29.9 -376.11,86.6 -1.56,0.8 -3.11,1.5 -4.65,2.3 -238.28,116 -522.16,-22 -574.16,-281.9 -23.56,-117.8 -42.46,-240.1 -56.31,-367 -80.8,-740.6 466.08,-1607.7 682.54,-2497.6 94.32,196.6 136.89,413.3 136.89,413.3 86.86,-308.5 -26.01,-745 -119.06,-1020.7 -96.22,-376.4 -360.1,-720.8 -431.21,-1106.3 -102.64,-556.5 92.72,-1791.9 911.36,-1553.6 196.2,57.1 384.64,171.2 588.61,178.2 73.36,2.5 143.17,0.5 209.63,-6 -141.82,225.1 -396.11,331.9 -396.11,331.9 485.02,-35.3 873.2,-469.4 996.82,-624 101.29,-119.5 180.03,-278.6 235.74,-484 9.85,-52.2 178.63,-922.6 522.5,-1094.5 0,0 -94.73,154.9 -85.43,429.9 110.41,-68.6 244.81,-128.1 403.69,-172.3 -28.57,93.1 -54.19,192.2 -60.8,265.6 0,0 59.27,-93.1 138.4,-205.3 44.24,-62.7 112.23,-104.5 188.21,-115.3 75.69,-10.8 155.68,-18.5 240.07,-22.4 -27.51,90.6 -51.79,185.9 -58.19,257.1 0,0 52.25,-82.1 124.13,-185 33.31,-47.7 88.14,-76 146.29,-74.7 39.46,0.9 79.75,2.6 120.93,5 41.2,-2.4 81.5,-4.1 120.9,-5 58.2,-1.3 113,27 146.3,74.7 71.9,102.9 124.1,185 124.1,185 -6.4,-71.2 -30.6,-166.5 -58.1,-257.1 69.7,3.3 136.5,9 200.3,17 99.9,12.6 190.1,66.3 247.7,148.9 69,99.2 118.6,177.1 118.6,177.1 -6.6,-73.4 -32.2,-172.5 -60.8,-265.6 158.9,44.2 293.3,103.7 403.7,172.3 9.3,-275 -85.4,-429.9 -85.4,-429.9 343.9,171.9 512.7,1042.3 522.5,1094.5 55.7,205.4 134.4,364.5 235.7,484 123.7,154.6 511.8,588.7 996.9,624 0,0 -254.3,-106.8 -396.2,-331.9 66.5,6.5 136.3,8.5 209.7,6 203.9,-7 392.4,-121.1 588.6,-178.2 818.6,-238.3 1014,997.1 911.3,1553.6 -71.1,385.5 -334.9,729.9 -431.2,1106.3 -93,275.7 -205.9,712.1 -119,1020.7 0,0 42.5,-216.7 136.9,-413.3 z M 4272,13822.6 c 432.78,-896.1 1018.99,-1264.2 1018.99,-1264.2 -2.2,-168.6 112.21,-391.1 112.21,-391.1 -938.97,782.4 -1131.2,1655.3 -1131.2,1655.3 z m 2599.32,-2527.7 c 240.97,207.1 534.52,585.2 530.59,1196.9 -1.31,203.2 -115.5,388.9 -295.69,482.8 -175.99,91.6 -423.62,225.1 -690.83,383.3 -26.19,-166.3 -99.13,-347.5 -279.32,-452 0,0 89.2,135.9 124.75,342.1 18.97,110 -29.58,220.4 -124,279.9 -82.18,51.8 -164.55,105.3 -245.67,160 -32.37,-108.9 -93,-213.4 -200.24,-291.5 0,0 78.09,151.1 89.66,367.5 -321.86,225.2 -613.16,466.9 -781.8,694.7 -536.63,725 -954.71,1357.1 -986.74,2701.4 0,0 -377.94,-688.7 -439.78,-1584 -9.87,-142.9 84.35,-272.9 223.72,-305.8 2.32,-0.5 3.53,-0.8 3.53,-0.8 -82.4,-21.9 -161.2,-22 -234.91,-7.8 0.93,-44.8 2.78,-89.9 5.58,-135.3 14.41,-233.2 177.39,-431.8 403.18,-491.5 11.41,-3 17.68,-4.4 17.68,-4.4 -129.68,-34.5 -250.36,-14.9 -356.31,29.7 45.45,-207.1 115,-416.5 215.49,-623.7 558.25,-1150.9 1067.21,-2158.2 2421.33,-2815.9 197.44,-95.9 433.3,-68.6 599.78,74.4 z m 7725.48,872.4 c 0,0 114.4,222.5 112.2,391.1 0,0 586.2,368.1 1019,1264.2 0,0 -192.2,-872.9 -1131.2,-1655.3 z m 1833,2959 c 2.8,45.4 4.7,90.5 5.6,135.3 -73.7,-14.2 -152.5,-14.1 -234.9,7.8 0,0 1.2,0.3 3.5,0.8 139.4,32.9 233.6,162.9 223.8,305.8 -61.9,895.3 -439.8,1584 -439.8,1584 -32.1,-1344.3 -450.1,-1976.4 -986.8,-2701.4 -168.6,-227.8 -459.9,-469.5 -781.8,-694.7 11.6,-216.4 89.7,-367.5 89.7,-367.5 -107.2,78.1 -167.9,182.6 -200.2,291.5 -81.2,-54.7 -163.5,-108.2 -245.7,-160 -94.4,-59.5 -143,-169.9 -124,-279.9 35.5,-206.2 124.7,-342.1 124.7,-342.1 -180.2,104.5 -253.1,285.7 -279.3,452 -267.2,-158.2 -514.8,-291.7 -690.8,-383.3 -180.2,-93.9 -294.4,-279.6 -295.7,-482.8 -3.9,-611.7 289.6,-989.8 530.6,-1196.9 166.5,-143 402.3,-170.3 599.8,-74.4 1354.1,657.7 1863,1665 2421.3,2815.9 100.5,207.2 170,416.6 215.5,623.7 -106,-44.6 -226.7,-64.2 -356.3,-29.7 0,0 6.2,1.4 17.6,4.4 225.8,59.7 388.8,258.3 403.2,491.5"
         style="fill:#231f20;fill-opacity:1;fill-rule:nonzero;stroke:none"
         transform="matrix(0.13333333,0,0,-0.13333333,0,2666.6667)" />
    </g>
  </g>
</svg>
